<svg width="228" height="57" viewBox="0 0 228 57" fill="none" xmlns="http://www.w3.org/2000/svg">
<g clip-path="url(#clip0_87_123)">
<path d="M214.123 1H13.8791C6.76187 1 0.992188 6.8203 0.992188 14V43C0.992188 50.1797 6.76187 56 13.8791 56H214.123C221.24 56 227.01 50.1797 227.01 43V14C227.01 6.8203 221.24 1 214.123 1Z" fill="white" stroke="#111111" stroke-width="2"/>
<path d="M86.7088 27.7273H83.5321C83.5095 27.4621 83.4495 27.2216 83.3518 27.0057C83.2579 26.7898 83.1266 26.6042 82.9576 26.4489C82.7923 26.2898 82.5915 26.1686 82.355 26.0852C82.1183 25.9981 81.8499 25.9545 81.5495 25.9545C81.0238 25.9545 80.5788 26.0833 80.2146 26.3409C79.8541 26.5985 79.58 26.9678 79.3923 27.4489C79.2083 27.9299 79.1163 28.5076 79.1163 29.1818C79.1163 29.8939 79.2102 30.4905 79.3979 30.9716C79.5894 31.4489 79.8654 31.8087 80.2258 32.0511C80.5864 32.2898 81.0201 32.4091 81.5269 32.4091C81.8161 32.4091 82.0752 32.3731 82.3042 32.3011C82.5333 32.2254 82.7323 32.1174 82.9013 31.9773C83.0703 31.8371 83.2073 31.6686 83.3125 31.4716C83.4213 31.2708 83.4946 31.0455 83.5321 30.7955L86.7088 30.8182C86.6712 31.3106 86.5342 31.8125 86.2976 32.3239C86.0611 32.8314 85.725 33.3011 85.2894 33.733C84.8576 34.161 84.3225 34.5057 83.6842 34.767C83.0458 35.0284 82.3042 35.1591 81.4594 35.1591C80.4005 35.1591 79.4504 34.9299 78.6094 34.4716C77.7721 34.0133 77.1093 33.339 76.6212 32.4489C76.1367 31.5587 75.8945 30.4697 75.8945 29.1818C75.8945 27.8864 76.1424 26.7955 76.638 25.9091C77.1337 25.0189 77.8021 24.3466 78.6431 23.892C79.4842 23.4337 80.423 23.2045 81.4594 23.2045C82.1878 23.2045 82.8581 23.3049 83.4702 23.5057C84.0822 23.7064 84.6192 24 85.0811 24.3864C85.5429 24.7689 85.9146 25.2405 86.1963 25.8011C86.4779 26.3617 86.6487 27.0038 86.7088 27.7273ZM94.5251 40.1818C93.4944 40.1818 92.6073 40.0455 91.8639 39.7727C91.126 39.5 90.5233 39.1392 90.0558 38.6903C89.5883 38.2415 89.2392 37.75 89.0082 37.2159L91.1795 36.3125C91.3316 36.5625 91.5343 36.8267 91.7878 37.1051C92.0468 37.3892 92.3961 37.6307 92.8354 37.8295C93.2804 38.0284 93.8521 38.1278 94.5505 38.1278C95.508 38.1278 96.2993 37.892 96.9246 37.4205C97.5498 36.9545 97.8623 36.2102 97.8623 35.1875V32.6136H97.7018C97.5498 32.892 97.3301 33.2017 97.0428 33.5426C96.7612 33.8835 96.3726 34.179 95.8769 34.429C95.3813 34.679 94.7364 34.804 93.9422 34.804C92.9171 34.804 91.9934 34.5625 91.171 34.0795C90.3544 33.5909 89.7067 32.8722 89.2279 31.9233C88.7547 30.9687 88.5182 29.7955 88.5182 28.4034C88.5182 27.0114 88.7519 25.8182 89.2194 24.8239C89.6925 23.8295 90.3403 23.0682 91.1626 22.5398C91.9849 22.0057 92.9171 21.7386 93.9591 21.7386C94.7645 21.7386 95.4151 21.875 95.9108 22.1477C96.4064 22.4148 96.7922 22.7273 97.0682 23.0852C97.3498 23.4432 97.5666 23.7585 97.7187 24.0312H97.9046V21.9091H100.38V35.2898C100.38 36.4148 100.121 37.3381 99.6026 38.0597C99.0846 38.7813 98.3834 39.3153 97.499 39.6619C96.6204 40.0085 95.6291 40.1818 94.5251 40.1818ZM94.4998 32.6903C95.2264 32.6903 95.8404 32.5199 96.3416 32.179C96.8485 31.8324 97.2316 31.3381 97.4906 30.696C97.7554 30.0483 97.8877 29.2727 97.8877 28.3693C97.8877 27.4886 97.7581 26.7131 97.499 26.0426C97.24 25.3722 96.8598 24.8494 96.3585 24.4744C95.8572 24.0937 95.2377 23.9034 94.4998 23.9034C93.7394 23.9034 93.1058 24.1023 92.5989 24.5C92.0919 24.892 91.7089 25.4261 91.4499 26.1023C91.1964 26.7784 91.0697 27.5341 91.0697 28.3693C91.0697 29.2273 91.1992 29.9801 91.4583 30.6278C91.7174 31.2756 92.1004 31.7812 92.6073 32.1449C93.1198 32.5085 93.7507 32.6903 94.4998 32.6903ZM102.941 35V27H104.138V30.4766H108.091V27H109.292V35H108.091V31.5117H104.138V35H102.941ZM111.43 35V23.3636H118.583V24.875H113.171V28.4205H118.071V29.9261H113.171V35H111.43ZM120.245 35V33.25L125.697 25.9091H120.267V23.3636H129.685V25.1136L124.233 32.4545H129.662V35H120.245ZM141.976 29.2955C141.774 30.5189 141.379 31.5682 140.793 32.4432C140.211 33.3182 139.498 33.9905 138.653 34.4602C137.811 34.9261 136.903 35.1591 135.927 35.1591C134.909 35.1591 134.04 34.9148 133.319 34.4261C132.602 33.9337 132.088 33.2348 131.775 32.3295C131.464 31.4205 131.412 30.3371 131.618 29.0795C131.821 27.8561 132.214 26.8068 132.795 25.9318C133.381 25.053 134.096 24.3788 134.942 23.9091C135.79 23.4394 136.706 23.2045 137.689 23.2045C138.7 23.2045 139.562 23.4508 140.275 23.9432C140.993 24.4318 141.507 25.1326 141.818 26.0455C142.131 26.9545 142.183 28.0379 141.976 29.2955ZM140.281 29.0795C140.434 28.1515 140.416 27.3712 140.224 26.7386C140.037 26.1023 139.716 25.6212 139.262 25.2955C138.807 24.9697 138.258 24.8068 137.617 24.8068C136.933 24.8068 136.293 24.9811 135.696 25.3295C135.103 25.678 134.596 26.1856 134.175 26.8523C133.755 27.5189 133.468 28.3333 133.314 29.2955C133.156 30.2235 133.173 31.0038 133.364 31.6364C133.556 32.2689 133.879 32.7481 134.333 33.0739C134.791 33.3958 135.341 33.5568 135.983 33.5568C136.662 33.5568 137.299 33.3845 137.893 33.0398C138.489 32.6913 138.998 32.1856 139.419 31.5227C139.84 30.8561 140.127 30.0417 140.281 29.0795ZM143.927 35V23.3636H148.038C148.936 23.3636 149.679 23.5284 150.268 23.858C150.858 24.1875 151.299 24.6383 151.593 25.2102C151.885 25.7784 152.032 26.4186 152.032 27.1307C152.032 27.8466 151.883 28.4905 151.587 29.0625C151.293 29.6307 150.85 30.0814 150.257 30.4148C149.667 30.7443 148.926 30.9091 148.033 30.9091H145.205V29.4205H147.875C148.441 29.4205 148.902 29.322 149.255 29.125C149.608 28.9242 149.867 28.6515 150.032 28.3068C150.197 27.9621 150.28 27.5701 150.28 27.1307C150.28 26.6913 150.197 26.3011 150.032 25.9602C149.867 25.6193 149.606 25.3523 149.249 25.1591C148.896 24.9659 148.43 24.8693 147.852 24.8693H145.666V35H143.927Z" fill="black"/>
<path d="M130.469 29.7614H142.659V30.8523H130.469V29.7614Z" fill="black"/>
</g>
<defs>
<clipPath id="clip0_87_123">
<rect width="228" height="57" fill="white"/>
</clipPath>
</defs>
</svg>
